<?xml version="1.0" encoding="utf-8"?>
<!-- Generator: Adobe Illustrator 22.0.1, SVG Export Plug-In . SVG Version: 6.00 Build 0)  -->
<svg version="1.1" id="Layer_1" xmlns="http://www.w3.org/2000/svg" xmlns:xlink="http://www.w3.org/1999/xlink" x="0px" y="0px"
	 viewBox="0 0 300 100" style="enable-background:new 0 0 300 100;" xml:space="preserve">
<style type="text/css">
	.st0{fill:#F04A30;}
	.st1{clip-path:url(#SVGID_2_);fill:#DC3827;}
	.st2{fill:#FFFFFF;}
</style>
<g>
	<g>
		<g>
			<path class="st0" d="M147.6,54.3c0,2.8-0.3,5.4-1,7.8c-0.7,2.4-1.6,4.4-2.9,6.2c-1.3,1.7-2.8,3.1-4.7,4.1c-1.9,1-4,1.5-6.4,1.5
				c-2,0-3.8-0.4-5.4-1.1c-1.5-0.7-2.9-1.7-4-3v18.1h-10.2V34.7h9.5l0.4,3.8c1.2-1.4,2.6-2.5,4.1-3.3c1.6-0.8,3.4-1.2,5.6-1.2
				c2.4,0,4.6,0.5,6.5,1.4c1.9,0.9,3.4,2.3,4.7,4c1.3,1.7,2.2,3.8,2.9,6.2c0.6,2.4,1,5.1,1,8V54.3z M137.4,53.5
				c0-1.6-0.1-3.1-0.4-4.4c-0.3-1.4-0.7-2.5-1.3-3.5c-0.6-1-1.4-1.8-2.3-2.4c-0.9-0.6-2.1-0.9-3.4-0.9c-1.7,0-3.1,0.3-4.1,0.9
				c-1.1,0.6-1.9,1.5-2.5,2.7v15.7c0.6,1.2,1.4,2.1,2.5,2.8c1.1,0.7,2.5,1,4.2,1c1.3,0,2.5-0.3,3.4-0.9c0.9-0.6,1.7-1.4,2.3-2.4
				c0.6-1,1-2.2,1.3-3.6c0.3-1.4,0.4-2.8,0.4-4.4V53.5z"/>
			<path class="st0" d="M152.4,24.8c0-1.5,0.5-2.8,1.5-3.8c1-1,2.4-1.5,4.2-1.5c0.9,0,1.7,0.1,2.4,0.4c0.7,0.3,1.3,0.6,1.8,1.1
				c0.5,0.5,0.9,1,1.2,1.7c0.3,0.7,0.4,1.4,0.4,2.1c0,0.8-0.1,1.5-0.4,2.1c-0.3,0.7-0.7,1.2-1.2,1.7c-0.5,0.5-1.1,0.8-1.8,1.1
				c-0.7,0.3-1.5,0.4-2.4,0.4c-0.9,0-1.7-0.1-2.4-0.4c-0.7-0.3-1.3-0.6-1.8-1.1c-0.5-0.5-0.9-1-1.2-1.7
				C152.6,26.3,152.4,25.6,152.4,24.8z M163.3,73.1H153V34.7h10.3V73.1z"/>
			<path class="st0" d="M186.3,65.5c0.9,0,1.8-0.1,2.6-0.4c0.8-0.3,1.5-0.7,2-1.2c0.6-0.5,1-1.1,1.3-1.8c0.3-0.7,0.5-1.5,0.5-2.4
				h9.6c0,2-0.4,3.9-1.3,5.6c-0.8,1.7-1.9,3.2-3.4,4.4c-1.4,1.2-3.1,2.2-5,2.9c-1.9,0.7-4,1-6.2,1c-3,0-5.6-0.5-7.8-1.5
				c-2.2-1-4.1-2.4-5.5-4.1c-1.5-1.7-2.6-3.8-3.3-6.1c-0.7-2.4-1.1-4.9-1.1-7.6v-1c0-2.7,0.4-5.3,1.1-7.6c0.7-2.4,1.8-4.4,3.3-6.2
				c1.5-1.7,3.3-3.1,5.5-4.1c2.2-1,4.8-1.5,7.7-1.5c2.4,0,4.5,0.3,6.5,1c1.9,0.7,3.6,1.7,5,3c1.4,1.3,2.5,2.9,3.3,4.7
				c0.8,1.9,1.2,3.9,1.2,6.2h-9.6c0-0.9-0.2-1.8-0.5-2.6c-0.3-0.8-0.7-1.5-1.3-2.1c-0.5-0.6-1.2-1.1-2-1.4c-0.8-0.4-1.7-0.5-2.8-0.5
				c-1.5,0-2.7,0.3-3.7,0.9c-0.9,0.6-1.7,1.4-2.2,2.5c-0.5,1-0.9,2.2-1.1,3.6c-0.2,1.3-0.3,2.7-0.3,4.2v1c0,1.5,0.1,2.9,0.3,4.2
				c0.2,1.3,0.5,2.5,1.1,3.5c0.5,1,1.3,1.8,2.2,2.4C183.5,65.2,184.7,65.5,186.3,65.5z"/>
			<path class="st0" d="M228.9,73.1c-0.5-0.9-0.8-2.1-1-3.4c-1,1.2-2.3,2.1-3.9,2.9c-1.6,0.8-3.5,1.2-5.8,1.2
				c-1.8,0-3.6-0.3-5.2-0.9c-1.6-0.6-3-1.4-4.1-2.4c-1.2-1-2.1-2.2-2.7-3.6c-0.7-1.4-1-2.9-1-4.6c0-2,0.4-3.8,1.1-5.4
				c0.7-1.6,1.9-2.9,3.3-4c1.5-1.1,3.3-1.9,5.5-2.5c2.2-0.6,4.8-0.9,7.7-0.9h4.6v-2.2c0-1.8-0.5-3.2-1.4-4.3
				c-0.9-1.1-2.3-1.6-4.3-1.6c-1.7,0-3.1,0.4-4.1,1.2c-1,0.8-1.5,2-1.5,3.4H206c0-1.7,0.4-3.2,1.2-4.7c0.8-1.5,1.9-2.8,3.3-3.9
				c1.4-1.1,3.1-2,5.1-2.6c2-0.6,4.3-1,6.7-1c2.2,0,4.3,0.3,6.2,0.9c1.9,0.6,3.5,1.4,4.9,2.5c1.4,1.1,2.4,2.5,3.2,4.2
				c0.8,1.7,1.2,3.7,1.2,5.9v16.2c0,1.1,0,2.1,0.1,2.9c0.1,0.9,0.2,1.6,0.3,2.3c0.1,0.7,0.3,1.3,0.5,1.9c0.2,0.6,0.4,1.1,0.7,1.6
				v0.6H228.9z M220.5,66c0.9,0,1.7-0.1,2.4-0.3c0.7-0.2,1.4-0.5,2-0.8c0.6-0.3,1.1-0.7,1.5-1.2c0.4-0.4,0.8-0.9,1-1.4v-6.6h-4.2
				c-1.3,0-2.5,0.1-3.5,0.4c-1,0.3-1.8,0.7-2.4,1.2c-0.6,0.5-1.1,1.2-1.4,1.9c-0.3,0.7-0.5,1.5-0.5,2.4c0,1.3,0.4,2.3,1.3,3.2
				C217.7,65.6,218.9,66,220.5,66z"/>
			<path class="st0" d="M258.8,46.2l6.5-11.4h11l-10.9,18.8l11.4,19.6h-11L258.8,61L252,73.1h-11l11.4-19.6l-10.9-18.8h11
				L258.8,46.2z"/>
		</g>
	</g>
	<g>
		<circle class="st0" cx="63" cy="53" r="41"/>
		<g>
			<defs>
				<circle id="SVGID_1_" cx="63" cy="53" r="41"/>
			</defs>
			<clipPath id="SVGID_2_">
				<use xlink:href="#SVGID_1_"  style="overflow:visible;"/>
			</clipPath>
			<path class="st1" d="M26.3,84.1l7.1-0.5c0,0,14.9,20.1,46.5,10.8c20.4-9.1,33.7-29.1,33.7-29.1l-44.8-22L57.7,54.3l-9.4,8.6
				L26.3,84.1z"/>
		</g>
		<path class="st2" d="M45,66.9c1.6-2.6,4.9-5.5,5.9-6.4c6.1-5.6,12-11.3,17.8-17.3c-4-3.8-9-6.3-14.4-7.3
			c5.6-2.5,12.5-1.5,17.2,2.3c0.7,0.6,1.4,1.2,2.2,1.3c2,0.2,3.1-0.5,3,2.1c0,2.2,1.5,4,2.6,5.9c2.6,4.3,3,9.8,1.1,14.5
			c-1.8-5.3-3.7-10.8-7.8-14.6c-7,7.1-14,14.3-20.9,21.4c-0.8,0.8-1.6,1.6-2.6,2.2C46,72.7,43.1,70.1,45,66.9z"/>
	</g>
</g>
</svg>
